<svg width="50" height="50" viewBox="0 0 50 50" fill="none" xmlns="http://www.w3.org/2000/svg">
<g filter="url(#filter0_b_413_8)">
<rect width="50" height="50" rx="20" fill="white" fill-opacity="0.4"/>
</g>
<path d="M27.3538 34.8936L27.3461 34.8935L27.3385 34.8935C27.2773 34.8938 27.2163 34.8801 27.1596 34.8527C27.1033 34.8255 27.0521 34.7851 27.0104 34.7331C27.0101 34.7327 27.0098 34.7324 27.0095 34.732L20.1096 26.0015L20.1097 26.0014L20.1033 25.9935C20.0378 25.9123 20 25.8077 20 25.6972C20 25.5876 20.0372 25.4838 20.1018 25.4028L27.2442 16.6727L27.245 16.6717C27.3203 16.5794 27.4247 16.5256 27.5327 16.5155C27.6405 16.5053 27.7507 16.5387 27.839 16.6135C27.928 16.6888 27.988 16.801 27.9994 16.9274C28.0108 17.0538 27.9721 17.177 27.8965 17.2699C27.8964 17.2701 27.8963 17.2702 27.8961 17.2704L21.5094 25.071L20.9995 25.6938L21.499 26.325L27.6724 34.1269L27.6774 34.1332L27.6825 34.1395C27.7368 34.2059 27.7729 34.2889 27.784 34.3789C27.7951 34.4689 27.7805 34.5598 27.743 34.6402C27.7056 34.7204 27.6477 34.7852 27.5786 34.8291C27.5097 34.8728 27.4318 34.8945 27.3538 34.8936Z" stroke="black" stroke-width="2"/>
<defs>
<filter id="filter0_b_413_8" x="-25" y="-25" width="100" height="100" filterUnits="userSpaceOnUse" color-interpolation-filters="sRGB">
<feFlood flood-opacity="0" result="BackgroundImageFix"/>
<feGaussianBlur in="BackgroundImageFix" stdDeviation="12.5"/>
<feComposite in2="SourceAlpha" operator="in" result="effect1_backgroundBlur_413_8"/>
<feBlend mode="normal" in="SourceGraphic" in2="effect1_backgroundBlur_413_8" result="shape"/>
</filter>
</defs>
</svg>
