<svg width="39" height="19" viewBox="0 0 39 19" fill="none" xmlns="http://www.w3.org/2000/svg">
<path d="M6.13344 15.22C5.65344 15.22 5.17344 15.1733 4.69344 15.08C4.22677 14.9867 3.76677 14.8533 3.31344 14.68C2.87344 14.5067 2.44677 14.3 2.03344 14.06C1.63344 13.8067 1.27344 13.5267 0.953438 13.22L2.19344 11.58C2.44677 11.86 2.73344 12.1 3.05344 12.3C3.37344 12.5 3.70677 12.6667 4.05344 12.8C4.41344 12.9333 4.77344 13.04 5.13344 13.12C5.50677 13.1867 5.86677 13.22 6.21344 13.22C6.6401 13.22 7.01344 13.18 7.33344 13.1C7.66677 13.0067 7.9401 12.88 8.15344 12.72C8.3801 12.56 8.55344 12.36 8.67344 12.12C8.79344 11.8667 8.85344 11.58 8.85344 11.26C8.85344 10.78 8.73344 10.4 8.49344 10.12C8.25344 9.84 7.92677 9.6 7.51344 9.4C7.1001 9.2 6.62677 9.02667 6.09344 8.88C5.5601 8.72 5.00677 8.54 4.43344 8.34C4.00677 8.19333 3.60677 8.02667 3.23344 7.84C2.8601 7.64 2.53344 7.4 2.25344 7.12C1.97344 6.82667 1.75344 6.48 1.59344 6.08C1.43344 5.68 1.35344 5.2 1.35344 4.64C1.35344 4.05333 1.4601 3.52667 1.67344 3.06C1.88677 2.59333 2.19344 2.19333 2.59344 1.86C2.99344 1.51333 3.46677 1.24667 4.01344 1.06C4.5601 0.873333 5.16677 0.779999 5.83344 0.779999C6.72677 0.779999 7.57344 0.933333 8.37344 1.24C9.17344 1.54667 9.8801 1.96667 10.4934 2.5L9.29344 4.16C8.82677 3.69333 8.27344 3.34667 7.63344 3.12C7.00677 2.89333 6.4001 2.78 5.81344 2.78C5.42677 2.78 5.08677 2.82667 4.79344 2.92C4.51344 3 4.26677 3.12 4.05344 3.28C3.85344 3.44 3.7001 3.63333 3.59344 3.86C3.5001 4.07333 3.45344 4.32 3.45344 4.6C3.45344 4.96 3.5401 5.26 3.71344 5.5C3.88677 5.74 4.1201 5.95333 4.41344 6.14C4.7201 6.31333 5.0801 6.46667 5.49344 6.6C5.90677 6.73333 6.34677 6.86667 6.81344 7C7.3201 7.14667 7.8201 7.32 8.31344 7.52C8.8201 7.72 9.27344 7.97333 9.67344 8.28C10.0734 8.58667 10.3934 8.97333 10.6334 9.44C10.8868 9.89333 11.0134 10.4533 11.0134 11.12C11.0134 11.7467 10.9001 12.3133 10.6734 12.82C10.4468 13.3267 10.1201 13.76 9.69344 14.12C9.2801 14.4667 8.76677 14.74 8.15344 14.94C7.55344 15.1267 6.8801 15.22 6.13344 15.22ZM13.2788 15V0.599999H15.2588V9.06H15.3588L19.5788 4.6H21.9188L17.2388 9.44L22.1188 15H19.6188L15.3788 9.96H15.2588V15H13.2788ZM23.8061 15V4.6H25.7861V15H23.8061ZM24.7861 3.06C24.4261 3.06 24.1328 2.95333 23.9061 2.74C23.6794 2.51333 23.5661 2.23333 23.5661 1.9C23.5661 1.56667 23.6794 1.28667 23.9061 1.06C24.1461 0.833333 24.4394 0.719999 24.7861 0.719999C25.1461 0.719999 25.4461 0.833333 25.6861 1.06C25.9261 1.28667 26.0461 1.56667 26.0461 1.9C26.0461 2.23333 25.9261 2.51333 25.6861 2.74C25.4461 2.95333 25.1461 3.06 24.7861 3.06ZM28.8842 19V4.6H30.4442C30.4976 4.76 30.5509 4.96667 30.6042 5.22C30.6576 5.46 30.6976 5.68667 30.7242 5.9C31.1376 5.44667 31.6242 5.09333 32.1842 4.84C32.7576 4.57333 33.3976 4.44 34.1042 4.44H34.2642C34.9442 4.44 35.5709 4.56667 36.1442 4.82C36.7176 5.06 37.2042 5.40667 37.6042 5.86C38.0176 6.31333 38.3376 6.85333 38.5642 7.48C38.7909 8.09333 38.9042 8.77333 38.9042 9.52V10.08C38.9042 10.8133 38.7909 11.4933 38.5642 12.12C38.3376 12.7467 38.0176 13.2867 37.6042 13.74C37.2042 14.1933 36.7176 14.5467 36.1442 14.8C35.5709 15.04 34.9442 15.16 34.2642 15.16H34.1042C33.4376 15.16 32.8309 15.0467 32.2842 14.82C31.7376 14.58 31.2642 14.2467 30.8642 13.82V19H28.8842ZM33.7642 13.42H33.9242C34.3509 13.42 34.7442 13.34 35.1042 13.18C35.4642 13.02 35.7709 12.7933 36.0242 12.5C36.2776 12.1933 36.4776 11.8333 36.6242 11.42C36.7709 11.0067 36.8442 10.5467 36.8442 10.04V9.54C36.8442 9.03333 36.7709 8.57333 36.6242 8.16C36.4776 7.74667 36.2776 7.39333 36.0242 7.1C35.7709 6.80667 35.4642 6.58 35.1042 6.42C34.7442 6.26 34.3509 6.18 33.9242 6.18H33.7642C33.3242 6.18 32.9242 6.26 32.5642 6.42C32.2042 6.58 31.8976 6.81333 31.6442 7.12C31.3909 7.41333 31.1909 7.76667 31.0442 8.18C30.9109 8.59333 30.8442 9.04667 30.8442 9.54V10.04C30.8442 10.5467 30.9176 11.0067 31.0642 11.42C31.2109 11.8333 31.4109 12.1933 31.6642 12.5C31.9176 12.7933 32.2242 13.02 32.5842 13.18C32.9442 13.34 33.3376 13.42 33.7642 13.42Z" fill="black"/>
</svg>
