<svg width="100" height="60" viewBox="0 0 100 60" fill="none" xmlns="http://www.w3.org/2000/svg">
<g filter="url(#filter0_b_413_5)">
<rect width="100" height="60" rx="20" fill="white" fill-opacity="0.4"/>
</g>
<path d="M30.943 37V23H33.383L39.303 33.54H39.403V23H41.463V37H39.283L33.163 26.12H33.023V37H30.943ZM49.0832 37.16C48.3365 37.16 47.6565 37.04 47.0432 36.8C46.4299 36.5467 45.9032 36.2 45.4632 35.76C45.0365 35.3067 44.7032 34.7733 44.4632 34.16C44.2232 33.5333 44.1032 32.84 44.1032 32.08V31.7C44.1032 30.9267 44.2232 30.22 44.4632 29.58C44.7032 28.9267 45.0365 28.3733 45.4632 27.92C45.9032 27.4533 46.4232 27.0933 47.0232 26.84C47.6365 26.5867 48.3165 26.46 49.0632 26.46H49.2432C49.9232 26.46 50.5432 26.58 51.1032 26.82C51.6765 27.0467 52.1565 27.3733 52.5432 27.8C52.9432 28.2133 53.2499 28.72 53.4632 29.32C53.6899 29.9067 53.8032 30.56 53.8032 31.28V32.52H46.1232C46.1632 32.9467 46.2632 33.34 46.4232 33.7C46.5832 34.0467 46.7899 34.3467 47.0432 34.6C47.3099 34.84 47.6232 35.0333 47.9832 35.18C48.3565 35.3133 48.7632 35.38 49.2032 35.38H49.4032C50.0699 35.38 50.6365 35.24 51.1032 34.96C51.5699 34.68 51.9499 34.3333 52.2432 33.92L53.5232 35.06C53.2832 35.38 53.0099 35.6733 52.7032 35.94C52.3965 36.2067 52.0632 36.4267 51.7032 36.6C51.3432 36.7733 50.9632 36.9067 50.5632 37C50.1632 37.1067 49.7432 37.16 49.3032 37.16H49.0832ZM46.1632 30.98H51.9032V30.96C51.8765 30.5333 51.7965 30.1467 51.6632 29.8C51.5299 29.4533 51.3432 29.16 51.1032 28.92C50.8632 28.68 50.5832 28.4933 50.2632 28.36C49.9432 28.2267 49.5899 28.16 49.2032 28.16H49.0032C48.6165 28.16 48.2565 28.2267 47.9232 28.36C47.6032 28.4933 47.3232 28.68 47.0832 28.92C46.8432 29.16 46.6432 29.4533 46.4832 29.8C46.3232 30.1467 46.2165 30.54 46.1632 30.98ZM54.5212 37L58.0412 31.7V31.62L54.6812 26.6H57.0212L59.3412 30.32H59.4212L61.6412 26.6H63.9012L60.5612 31.62V31.7L64.0612 37H61.7212L59.3212 33.02H59.2412L56.8012 37H54.5212ZM69.037 37.08C68.5703 37.08 68.1636 37.02 67.817 36.9C67.4703 36.78 67.177 36.6 66.937 36.36C66.697 36.12 66.517 35.8133 66.397 35.44C66.277 35.0667 66.217 34.6267 66.217 34.12V28.3H64.837V26.92C65.037 26.8533 65.257 26.7933 65.497 26.74C65.7503 26.6733 65.9903 26.6267 66.217 26.6V24.2L68.197 23.94V26.6H71.177V28.3H68.177V33.74C68.177 34.34 68.2903 34.7533 68.517 34.98C68.757 35.1933 69.097 35.3 69.537 35.3C69.657 35.3 69.797 35.3 69.957 35.3C70.117 35.2867 70.277 35.2733 70.437 35.26C70.6103 35.2333 70.7703 35.2067 70.917 35.18C71.077 35.1533 71.2103 35.12 71.317 35.08V36.72C71.0503 36.84 70.6903 36.9333 70.237 37C69.7836 37.0533 69.3836 37.08 69.037 37.08Z" fill="black"/>
<defs>
<filter id="filter0_b_413_5" x="-25" y="-25" width="150" height="110" filterUnits="userSpaceOnUse" color-interpolation-filters="sRGB">
<feFlood flood-opacity="0" result="BackgroundImageFix"/>
<feGaussianBlur in="BackgroundImageFix" stdDeviation="12.5"/>
<feComposite in2="SourceAlpha" operator="in" result="effect1_backgroundBlur_413_5"/>
<feBlend mode="normal" in="SourceGraphic" in2="effect1_backgroundBlur_413_5" result="shape"/>
</filter>
</defs>
</svg>
