<svg width="270" height="50" viewBox="0 0 270 50" fill="none" xmlns="http://www.w3.org/2000/svg">
<rect width="270" height="50" rx="20" fill="white" fill-opacity="0.4"/>
<path d="M56.8024 32.18C55.8291 32.18 54.9424 32.0133 54.1424 31.68C53.3558 31.3467 52.6758 30.8733 52.1024 30.26C51.5424 29.6333 51.1024 28.8933 50.7824 28.04C50.4758 27.1867 50.3224 26.2333 50.3224 25.18V24.8C50.3224 23.76 50.4824 22.8133 50.8024 21.96C51.1224 21.0933 51.5624 20.36 52.1224 19.76C52.6958 19.1467 53.3758 18.6667 54.1624 18.32C54.9624 17.9733 55.8291 17.8 56.7624 17.8H56.9424C57.4758 17.8 57.9958 17.8733 58.5024 18.02C59.0224 18.1533 59.5024 18.3467 59.9424 18.6C60.3958 18.8533 60.8091 19.1667 61.1824 19.54C61.5691 19.9133 61.8958 20.3333 62.1624 20.8L60.4624 21.94C60.0891 21.26 59.6091 20.7267 59.0224 20.34C58.4491 19.9533 57.7558 19.76 56.9424 19.76H56.7824C56.1424 19.76 55.5624 19.88 55.0424 20.12C54.5224 20.36 54.0758 20.7 53.7024 21.14C53.3291 21.5667 53.0358 22.0933 52.8224 22.72C52.6224 23.3333 52.5224 24.0267 52.5224 24.8V25.2C52.5224 25.96 52.6224 26.6533 52.8224 27.28C53.0358 27.8933 53.3291 28.42 53.7024 28.86C54.0891 29.2867 54.5424 29.62 55.0624 29.86C55.5958 30.1 56.1824 30.22 56.8224 30.22H57.0024C57.4024 30.22 57.7758 30.1733 58.1224 30.08C58.4824 29.9733 58.8091 29.8267 59.1024 29.64C59.3958 29.44 59.6624 29.2067 59.9024 28.94C60.1558 28.66 60.3691 28.36 60.5424 28.04L62.1824 29.2C61.9158 29.6667 61.5958 30.0867 61.2224 30.46C60.8624 30.82 60.4558 31.1333 60.0024 31.4C59.5624 31.6533 59.0824 31.8467 58.5624 31.98C58.0558 32.1133 57.5291 32.18 56.9824 32.18H56.8024ZM64.2846 32V21.6H65.8046C65.8713 21.7867 65.9313 22.0067 65.9846 22.26C66.0513 22.5 66.0979 22.7333 66.1246 22.96C66.4979 22.52 66.9446 22.1867 67.4646 21.96C67.9979 21.72 68.5846 21.6 69.2246 21.6H69.4846V23.56C69.4046 23.5333 69.2979 23.52 69.1646 23.52C69.0313 23.5067 68.9046 23.5 68.7846 23.5C68.3579 23.5 67.9846 23.56 67.6646 23.68C67.3579 23.8 67.0979 23.9867 66.8846 24.24C66.6713 24.48 66.5113 24.7867 66.4046 25.16C66.3113 25.5333 66.2646 25.9667 66.2646 26.46V32H64.2846ZM75.8098 32.16C75.0631 32.16 74.3831 32.04 73.7698 31.8C73.1564 31.5467 72.6298 31.2 72.1898 30.76C71.7631 30.3067 71.4298 29.7733 71.1898 29.16C70.9498 28.5333 70.8298 27.84 70.8298 27.08V26.7C70.8298 25.9267 70.9498 25.22 71.1898 24.58C71.4298 23.9267 71.7631 23.3733 72.1898 22.92C72.6298 22.4533 73.1498 22.0933 73.7498 21.84C74.3631 21.5867 75.0431 21.46 75.7898 21.46H75.9698C76.6498 21.46 77.2698 21.58 77.8298 21.82C78.4031 22.0467 78.8831 22.3733 79.2698 22.8C79.6698 23.2133 79.9764 23.72 80.1898 24.32C80.4164 24.9067 80.5298 25.56 80.5298 26.28V27.52H72.8498C72.8898 27.9467 72.9898 28.34 73.1498 28.7C73.3098 29.0467 73.5164 29.3467 73.7698 29.6C74.0364 29.84 74.3498 30.0333 74.7098 30.18C75.0831 30.3133 75.4898 30.38 75.9298 30.38H76.1298C76.7964 30.38 77.3631 30.24 77.8298 29.96C78.2964 29.68 78.6764 29.3333 78.9698 28.92L80.2498 30.06C80.0098 30.38 79.7364 30.6733 79.4298 30.94C79.1231 31.2067 78.7898 31.4267 78.4298 31.6C78.0698 31.7733 77.6898 31.9067 77.2898 32C76.8898 32.1067 76.4698 32.16 76.0298 32.16H75.8098ZM72.8898 25.98H78.6298V25.96C78.6031 25.5333 78.5231 25.1467 78.3898 24.8C78.2564 24.4533 78.0698 24.16 77.8298 23.92C77.5898 23.68 77.3098 23.4933 76.9898 23.36C76.6698 23.2267 76.3164 23.16 75.9298 23.16H75.7298C75.3431 23.16 74.9831 23.2267 74.6498 23.36C74.3298 23.4933 74.0498 23.68 73.8098 23.92C73.5698 24.16 73.3698 24.4533 73.2098 24.8C73.0498 25.1467 72.9431 25.54 72.8898 25.98ZM85.5984 32.18C85.0917 32.18 84.625 32.1067 84.1984 31.96C83.785 31.8133 83.425 31.6067 83.1184 31.34C82.825 31.0733 82.5917 30.7533 82.4184 30.38C82.2584 29.9933 82.1784 29.5667 82.1784 29.1V28.94C82.1784 27.8067 82.6584 26.9667 83.6184 26.42C84.5917 25.86 86.0784 25.58 88.0784 25.58H88.9784V25C88.9784 24.44 88.7917 24 88.4184 23.68C88.0584 23.3467 87.5317 23.18 86.8384 23.18H86.7184C86.185 23.18 85.6384 23.2733 85.0784 23.46C84.5317 23.6467 84.025 23.9133 83.5584 24.26L82.6784 22.76C83.3184 22.3467 83.985 22.02 84.6784 21.78C85.385 21.5267 86.1117 21.4 86.8584 21.4H86.9984C88.225 21.4 89.1784 21.72 89.8584 22.36C90.5517 22.9867 90.8984 23.8533 90.8984 24.96V30.08C90.8984 30.4 90.9317 30.7333 90.9984 31.08C91.0784 31.4133 91.165 31.72 91.2584 32H89.3184C89.2517 31.8533 89.1917 31.6667 89.1384 31.44C89.0984 31.2133 89.065 30.9867 89.0384 30.76C88.5584 31.2133 88.025 31.5667 87.4384 31.82C86.865 32.06 86.2517 32.18 85.5984 32.18ZM85.9184 30.44C86.5317 30.44 87.0984 30.3133 87.6184 30.06C88.1517 29.7933 88.605 29.44 88.9784 29V27.08H88.3384C86.8584 27.08 85.785 27.22 85.1184 27.5C84.4517 27.78 84.1184 28.2333 84.1184 28.86V28.96C84.1184 29.1867 84.1584 29.3933 84.2384 29.58C84.3317 29.7533 84.4517 29.9067 84.5984 30.04C84.7584 30.16 84.9517 30.26 85.1784 30.34C85.405 30.4067 85.6517 30.44 85.9184 30.44ZM96.9354 32.08C96.4687 32.08 96.0621 32.02 95.7154 31.9C95.3687 31.78 95.0754 31.6 94.8354 31.36C94.5954 31.12 94.4154 30.8133 94.2954 30.44C94.1754 30.0667 94.1154 29.6267 94.1154 29.12V23.3H92.7354V21.92C92.9354 21.8533 93.1554 21.7933 93.3954 21.74C93.6487 21.6733 93.8887 21.6267 94.1154 21.6V19.2L96.0954 18.94V21.6H99.0754V23.3H96.0754V28.74C96.0754 29.34 96.1887 29.7533 96.4154 29.98C96.6554 30.1933 96.9954 30.3 97.4354 30.3C97.5554 30.3 97.6954 30.3 97.8554 30.3C98.0154 30.2867 98.1754 30.2733 98.3354 30.26C98.5087 30.2333 98.6687 30.2067 98.8154 30.18C98.9754 30.1533 99.1087 30.12 99.2154 30.08V31.72C98.9487 31.84 98.5887 31.9333 98.1354 32C97.6821 32.0533 97.2821 32.08 96.9354 32.08ZM105.419 32.16C104.672 32.16 103.992 32.04 103.379 31.8C102.766 31.5467 102.239 31.2 101.799 30.76C101.372 30.3067 101.039 29.7733 100.799 29.16C100.559 28.5333 100.439 27.84 100.439 27.08V26.7C100.439 25.9267 100.559 25.22 100.799 24.58C101.039 23.9267 101.372 23.3733 101.799 22.92C102.239 22.4533 102.759 22.0933 103.359 21.84C103.972 21.5867 104.652 21.46 105.399 21.46H105.579C106.259 21.46 106.879 21.58 107.439 21.82C108.012 22.0467 108.492 22.3733 108.879 22.8C109.279 23.2133 109.586 23.72 109.799 24.32C110.026 24.9067 110.139 25.56 110.139 26.28V27.52H102.459C102.499 27.9467 102.599 28.34 102.759 28.7C102.919 29.0467 103.126 29.3467 103.379 29.6C103.646 29.84 103.959 30.0333 104.319 30.18C104.692 30.3133 105.099 30.38 105.539 30.38H105.739C106.406 30.38 106.972 30.24 107.439 29.96C107.906 29.68 108.286 29.3333 108.579 28.92L109.859 30.06C109.619 30.38 109.346 30.6733 109.039 30.94C108.732 31.2067 108.399 31.4267 108.039 31.6C107.679 31.7733 107.299 31.9067 106.899 32C106.499 32.1067 106.079 32.16 105.639 32.16H105.419ZM102.499 25.98H108.239V25.96C108.212 25.5333 108.132 25.1467 107.999 24.8C107.866 24.4533 107.679 24.16 107.439 23.92C107.199 23.68 106.919 23.4933 106.599 23.36C106.279 23.2267 105.926 23.16 105.539 23.16H105.339C104.952 23.16 104.592 23.2267 104.259 23.36C103.939 23.4933 103.659 23.68 103.419 23.92C103.179 24.16 102.979 24.4533 102.819 24.8C102.659 25.1467 102.552 25.54 102.499 25.98ZM120.676 32.18C120.17 32.18 119.703 32.1067 119.276 31.96C118.863 31.8133 118.503 31.6067 118.196 31.34C117.903 31.0733 117.67 30.7533 117.496 30.38C117.336 29.9933 117.256 29.5667 117.256 29.1V28.94C117.256 27.8067 117.736 26.9667 118.696 26.42C119.67 25.86 121.156 25.58 123.156 25.58H124.056V25C124.056 24.44 123.87 24 123.496 23.68C123.136 23.3467 122.61 23.18 121.916 23.18H121.796C121.263 23.18 120.716 23.2733 120.156 23.46C119.61 23.6467 119.103 23.9133 118.636 24.26L117.756 22.76C118.396 22.3467 119.063 22.02 119.756 21.78C120.463 21.5267 121.19 21.4 121.936 21.4H122.076C123.303 21.4 124.256 21.72 124.936 22.36C125.63 22.9867 125.976 23.8533 125.976 24.96V30.08C125.976 30.4 126.01 30.7333 126.076 31.08C126.156 31.4133 126.243 31.72 126.336 32H124.396C124.33 31.8533 124.27 31.6667 124.216 31.44C124.176 31.2133 124.143 30.9867 124.116 30.76C123.636 31.2133 123.103 31.5667 122.516 31.82C121.943 32.06 121.33 32.18 120.676 32.18ZM120.996 30.44C121.61 30.44 122.176 30.3133 122.696 30.06C123.23 29.7933 123.683 29.44 124.056 29V27.08H123.416C121.936 27.08 120.863 27.22 120.196 27.5C119.53 27.78 119.196 28.2333 119.196 28.86V28.96C119.196 29.1867 119.236 29.3933 119.316 29.58C119.41 29.7533 119.53 29.9067 119.676 30.04C119.836 30.16 120.03 30.26 120.256 30.34C120.483 30.4067 120.73 30.44 120.996 30.44ZM129.031 32V21.6H130.591C130.657 21.8 130.717 22.0333 130.771 22.3C130.824 22.5667 130.864 22.8133 130.891 23.04C131.317 22.5333 131.831 22.14 132.431 21.86C133.044 21.5667 133.711 21.42 134.431 21.42H134.551C135.724 21.42 136.611 21.76 137.211 22.44C137.811 23.1067 138.111 24.0733 138.111 25.34V32H136.131V25.72C136.131 24.92 135.964 24.3067 135.631 23.88C135.297 23.4533 134.757 23.24 134.011 23.24H133.871C133.444 23.24 133.051 23.3133 132.691 23.46C132.344 23.5933 132.044 23.7933 131.791 24.06C131.551 24.3133 131.357 24.62 131.211 24.98C131.077 25.34 131.011 25.7533 131.011 26.22V32H129.031ZM149.212 32.18C148.705 32.18 148.238 32.1067 147.812 31.96C147.398 31.8133 147.038 31.6067 146.732 31.34C146.438 31.0733 146.205 30.7533 146.032 30.38C145.872 29.9933 145.792 29.5667 145.792 29.1V28.94C145.792 27.8067 146.272 26.9667 147.232 26.42C148.205 25.86 149.692 25.58 151.692 25.58H152.592V25C152.592 24.44 152.405 24 152.032 23.68C151.672 23.3467 151.145 23.18 150.452 23.18H150.332C149.798 23.18 149.252 23.2733 148.692 23.46C148.145 23.6467 147.638 23.9133 147.172 24.26L146.292 22.76C146.932 22.3467 147.598 22.02 148.292 21.78C148.998 21.5267 149.725 21.4 150.472 21.4H150.612C151.838 21.4 152.792 21.72 153.472 22.36C154.165 22.9867 154.512 23.8533 154.512 24.96V30.08C154.512 30.4 154.545 30.7333 154.612 31.08C154.692 31.4133 154.778 31.72 154.872 32H152.932C152.865 31.8533 152.805 31.6667 152.752 31.44C152.712 31.2133 152.678 30.9867 152.652 30.76C152.172 31.2133 151.638 31.5667 151.052 31.82C150.478 32.06 149.865 32.18 149.212 32.18ZM149.532 30.44C150.145 30.44 150.712 30.3133 151.232 30.06C151.765 29.7933 152.218 29.44 152.592 29V27.08H151.952C150.472 27.08 149.398 27.22 148.732 27.5C148.065 27.78 147.732 28.2333 147.732 28.86V28.96C147.732 29.1867 147.772 29.3933 147.852 29.58C147.945 29.7533 148.065 29.9067 148.212 30.04C148.372 30.16 148.565 30.26 148.792 30.34C149.018 30.4067 149.265 30.44 149.532 30.44ZM161.786 32.14C161.053 32.14 160.379 32.02 159.766 31.78C159.153 31.5267 158.626 31.1733 158.186 30.72C157.759 30.2667 157.426 29.7333 157.186 29.12C156.946 28.4933 156.826 27.8067 156.826 27.06V26.52C156.826 25.7867 156.946 25.1067 157.186 24.48C157.439 23.8533 157.779 23.32 158.206 22.88C158.646 22.4267 159.166 22.08 159.766 21.84C160.366 21.5867 161.026 21.46 161.746 21.46H161.906C162.799 21.46 163.613 21.68 164.346 22.12C165.093 22.5467 165.699 23.16 166.166 23.96L164.666 24.9C164.359 24.3267 163.973 23.9 163.506 23.62C163.053 23.3267 162.526 23.18 161.926 23.18H161.746C161.306 23.18 160.906 23.26 160.546 23.42C160.199 23.58 159.899 23.8067 159.646 24.1C159.406 24.3933 159.219 24.7467 159.086 25.16C158.953 25.5733 158.886 26.04 158.886 26.56V27.04C158.886 27.5467 158.953 28.0067 159.086 28.42C159.233 28.8333 159.433 29.1867 159.686 29.48C159.953 29.7733 160.266 30 160.626 30.16C160.999 30.32 161.406 30.4 161.846 30.4H162.046C162.593 30.4 163.086 30.26 163.526 29.98C163.979 29.6867 164.359 29.2667 164.666 28.72L166.186 29.68C165.706 30.48 165.106 31.0933 164.386 31.52C163.666 31.9333 162.859 32.14 161.966 32.14H161.786ZM172.489 32.14C171.756 32.14 171.082 32.02 170.469 31.78C169.856 31.5267 169.329 31.1733 168.889 30.72C168.462 30.2667 168.129 29.7333 167.889 29.12C167.649 28.4933 167.529 27.8067 167.529 27.06V26.52C167.529 25.7867 167.649 25.1067 167.889 24.48C168.142 23.8533 168.482 23.32 168.909 22.88C169.349 22.4267 169.869 22.08 170.469 21.84C171.069 21.5867 171.729 21.46 172.449 21.46H172.609C173.502 21.46 174.316 21.68 175.049 22.12C175.796 22.5467 176.402 23.16 176.869 23.96L175.369 24.9C175.062 24.3267 174.676 23.9 174.209 23.62C173.756 23.3267 173.229 23.18 172.629 23.18H172.449C172.009 23.18 171.609 23.26 171.249 23.42C170.902 23.58 170.602 23.8067 170.349 24.1C170.109 24.3933 169.922 24.7467 169.789 25.16C169.656 25.5733 169.589 26.04 169.589 26.56V27.04C169.589 27.5467 169.656 28.0067 169.789 28.42C169.936 28.8333 170.136 29.1867 170.389 29.48C170.656 29.7733 170.969 30 171.329 30.16C171.702 30.32 172.109 30.4 172.549 30.4H172.749C173.296 30.4 173.789 30.26 174.229 29.98C174.682 29.6867 175.062 29.2667 175.369 28.72L176.889 29.68C176.409 30.48 175.809 31.0933 175.089 31.52C174.369 31.9333 173.562 32.14 172.669 32.14H172.489ZM183.192 32.16C182.459 32.16 181.785 32.0333 181.172 31.78C180.572 31.5267 180.052 31.18 179.612 30.74C179.172 30.2867 178.832 29.7467 178.592 29.12C178.352 28.4933 178.232 27.8133 178.232 27.08V26.52C178.232 25.7733 178.352 25.0933 178.592 24.48C178.832 23.8533 179.172 23.32 179.612 22.88C180.052 22.4267 180.572 22.0733 181.172 21.82C181.785 21.5667 182.459 21.44 183.192 21.44H183.392C184.125 21.44 184.792 21.5667 185.392 21.82C186.005 22.0733 186.532 22.4267 186.972 22.88C187.412 23.32 187.752 23.8533 187.992 24.48C188.232 25.0933 188.352 25.7733 188.352 26.52V27.08C188.352 27.8133 188.232 28.4933 187.992 29.12C187.752 29.7467 187.412 30.2867 186.972 30.74C186.532 31.18 186.005 31.5267 185.392 31.78C184.792 32.0333 184.125 32.16 183.392 32.16H183.192ZM183.212 30.42H183.372C183.812 30.42 184.212 30.34 184.572 30.18C184.932 30.02 185.239 29.7933 185.492 29.5C185.745 29.1933 185.939 28.8333 186.072 28.42C186.205 27.9933 186.272 27.5333 186.272 27.04V26.54C186.272 26.0333 186.199 25.5733 186.052 25.16C185.919 24.7467 185.725 24.3933 185.472 24.1C185.219 23.8067 184.912 23.58 184.552 23.42C184.192 23.26 183.799 23.18 183.372 23.18H183.212C182.772 23.18 182.372 23.26 182.012 23.42C181.665 23.58 181.365 23.8067 181.112 24.1C180.859 24.3933 180.659 24.7467 180.512 25.16C180.365 25.5733 180.292 26.0333 180.292 26.54V27.04C180.292 27.5333 180.359 27.9933 180.492 28.42C180.639 28.8333 180.839 29.1933 181.092 29.5C181.345 29.7933 181.652 30.02 182.012 30.18C182.372 30.34 182.772 30.42 183.212 30.42ZM194.03 32.18C192.87 32.18 191.997 31.8467 191.41 31.18C190.823 30.5 190.53 29.5267 190.53 28.26V21.6H192.51V27.86C192.51 28.6733 192.67 29.2933 192.99 29.72C193.31 30.1467 193.837 30.36 194.57 30.36H194.69C195.117 30.36 195.503 30.2933 195.85 30.16C196.197 30.0133 196.49 29.8133 196.73 29.56C196.983 29.2933 197.177 28.98 197.31 28.62C197.457 28.2467 197.53 27.8267 197.53 27.36V21.6H199.51V32H197.95C197.883 31.8133 197.823 31.5867 197.77 31.32C197.717 31.04 197.677 30.7867 197.65 30.56C197.223 31.0667 196.71 31.4667 196.11 31.76C195.523 32.04 194.87 32.18 194.15 32.18H194.03ZM202.624 32V21.6H204.184C204.251 21.8 204.311 22.0333 204.364 22.3C204.418 22.5667 204.458 22.8133 204.484 23.04C204.911 22.5333 205.424 22.14 206.024 21.86C206.638 21.5667 207.304 21.42 208.024 21.42H208.144C209.318 21.42 210.204 21.76 210.804 22.44C211.404 23.1067 211.704 24.0733 211.704 25.34V32H209.724V25.72C209.724 24.92 209.558 24.3067 209.224 23.88C208.891 23.4533 208.351 23.24 207.604 23.24H207.464C207.038 23.24 206.644 23.3133 206.284 23.46C205.938 23.5933 205.638 23.7933 205.384 24.06C205.144 24.3133 204.951 24.62 204.804 24.98C204.671 25.34 204.604 25.7533 204.604 26.22V32H202.624ZM217.678 32.08C217.211 32.08 216.804 32.02 216.458 31.9C216.111 31.78 215.818 31.6 215.578 31.36C215.338 31.12 215.158 30.8133 215.038 30.44C214.918 30.0667 214.858 29.6267 214.858 29.12V23.3H213.478V21.92C213.678 21.8533 213.898 21.7933 214.138 21.74C214.391 21.6733 214.631 21.6267 214.858 21.6V19.2L216.838 18.94V21.6H219.818V23.3H216.818V28.74C216.818 29.34 216.931 29.7533 217.158 29.98C217.398 30.1933 217.738 30.3 218.178 30.3C218.298 30.3 218.438 30.3 218.598 30.3C218.758 30.2867 218.918 30.2733 219.078 30.26C219.251 30.2333 219.411 30.2067 219.558 30.18C219.718 30.1533 219.851 30.12 219.958 30.08V31.72C219.691 31.84 219.331 31.9333 218.878 32C218.424 32.0533 218.024 32.08 217.678 32.08Z" fill="black"/>
</svg>
