<svg width="50" height="50" viewBox="0 0 50 50" fill="none" xmlns="http://www.w3.org/2000/svg">
<rect width="50" height="50" rx="10" fill="white" fill-opacity="0.4"/>
<path d="M40 25.3334C40 24.1 39.8979 23.2 39.6769 22.2667H25.3062V27.8333H33.7415C33.5715 29.2167 32.6531 31.3 30.6122 32.7L30.5836 32.8863L35.1274 36.3359L35.4422 36.3667C38.3333 33.75 40 29.9 40 25.3334Z" fill="#4285F4"/>
<path d="M25.3061 40C29.4387 40 32.908 38.6666 35.4421 36.3667L30.6122 32.6999C29.3197 33.5833 27.585 34.1999 25.3061 34.1999C21.2585 34.1999 17.8231 31.5833 16.5985 27.9667L16.419 27.9816L11.6944 31.565L11.6326 31.7333C14.1496 36.6332 19.3196 40 25.3061 40Z" fill="#34A853"/>
<path d="M16.5986 27.9667C16.2755 27.0334 16.0885 26.0333 16.0885 25C16.0885 23.9666 16.2755 22.9667 16.5816 22.0333L16.573 21.8346L11.7891 18.1937L11.6326 18.2666C10.5952 20.3 10 22.5834 10 25C10 27.4167 10.5952 29.6999 11.6326 31.7333L16.5986 27.9667Z" fill="#FBBC05"/>
<path d="M25.3061 15.8C28.1802 15.8 30.1189 17.0166 31.2244 18.0334L35.5441 13.9C32.8912 11.4833 29.4387 10 25.3061 10C19.3196 10 14.1496 13.3666 11.6326 18.2666L16.5815 22.0333C17.8231 18.4167 21.2585 15.8 25.3061 15.8Z" fill="#EB4335"/>
</svg>
