<svg width="150" height="50" viewBox="0 0 150 50" fill="none" xmlns="http://www.w3.org/2000/svg">
    <rect width="150" height="50" rx="20" fill="white" fill-opacity="0.4" />
    <path
        d="M55.943 32V18H58.383L64.303 28.54H64.403V18H66.463V32H64.283L58.163 21.12H58.023V32H55.943ZM74.0832 32.16C73.3365 32.16 72.6565 32.04 72.0432 31.8C71.4299 31.5467 70.9032 31.2 70.4632 30.76C70.0365 30.3067 69.7032 29.7733 69.4632 29.16C69.2232 28.5333 69.1032 27.84 69.1032 27.08V26.7C69.1032 25.9267 69.2232 25.22 69.4632 24.58C69.7032 23.9267 70.0365 23.3733 70.4632 22.92C70.9032 22.4533 71.4232 22.0933 72.0232 21.84C72.6365 21.5867 73.3165 21.46 74.0632 21.46H74.2432C74.9232 21.46 75.5432 21.58 76.1032 21.82C76.6765 22.0467 77.1565 22.3733 77.5432 22.8C77.9432 23.2133 78.2499 23.72 78.4632 24.32C78.6899 24.9067 78.8032 25.56 78.8032 26.28V27.52H71.1232C71.1632 27.9467 71.2632 28.34 71.4232 28.7C71.5832 29.0467 71.7899 29.3467 72.0432 29.6C72.3099 29.84 72.6232 30.0333 72.9832 30.18C73.3565 30.3133 73.7632 30.38 74.2032 30.38H74.4032C75.0699 30.38 75.6365 30.24 76.1032 29.96C76.5699 29.68 76.9499 29.3333 77.2432 28.92L78.5232 30.06C78.2832 30.38 78.0099 30.6733 77.7032 30.94C77.3965 31.2067 77.0632 31.4267 76.7032 31.6C76.3432 31.7733 75.9632 31.9067 75.5632 32C75.1632 32.1067 74.7432 32.16 74.3032 32.16H74.0832ZM71.1632 25.98H76.9032V25.96C76.8765 25.5333 76.7965 25.1467 76.6632 24.8C76.5299 24.4533 76.3432 24.16 76.1032 23.92C75.8632 23.68 75.5832 23.4933 75.2632 23.36C74.9432 23.2267 74.5899 23.16 74.2032 23.16H74.0032C73.6165 23.16 73.2565 23.2267 72.9232 23.36C72.6032 23.4933 72.3232 23.68 72.0832 23.92C71.8432 24.16 71.6432 24.4533 71.4832 24.8C71.3232 25.1467 71.2165 25.54 71.1632 25.98ZM79.5212 32L83.0412 26.7V26.62L79.6812 21.6H82.0212L84.3412 25.32H84.4212L86.6412 21.6H88.9012L85.5612 26.62V26.7L89.0612 32H86.7212L84.3212 28.02H84.2412L81.8012 32H79.5212ZM94.037 32.08C93.5703 32.08 93.1636 32.02 92.817 31.9C92.4703 31.78 92.177 31.6 91.937 31.36C91.697 31.12 91.517 30.8133 91.397 30.44C91.277 30.0667 91.217 29.6267 91.217 29.12V23.3H89.837V21.92C90.037 21.8533 90.257 21.7933 90.497 21.74C90.7503 21.6733 90.9903 21.6267 91.217 21.6V19.2L93.197 18.94V21.6H96.177V23.3H93.177V28.74C93.177 29.34 93.2903 29.7533 93.517 29.98C93.757 30.1933 94.097 30.3 94.537 30.3C94.657 30.3 94.797 30.3 94.957 30.3C95.117 30.2867 95.277 30.2733 95.437 30.26C95.6103 30.2333 95.7703 30.2067 95.917 30.18C96.077 30.1533 96.2103 30.12 96.317 30.08V31.72C96.0503 31.84 95.6903 31.9333 95.237 32C94.7836 32.0533 94.3836 32.08 94.037 32.08Z"
        fill="black" />
</svg>
