<svg width="150" height="50" viewBox="0 0 150 50" fill="none" xmlns="http://www.w3.org/2000/svg">
<rect width="150" height="50" rx="20" fill="white" fill-opacity="0.4"/>
<path d="M50.0544 32V18H52.1744V30.08H57.6944V32H50.0544ZM63.5066 32.16C62.7732 32.16 62.0999 32.0333 61.4866 31.78C60.8866 31.5267 60.3666 31.18 59.9266 30.74C59.4866 30.2867 59.1466 29.7467 58.9066 29.12C58.6666 28.4933 58.5466 27.8133 58.5466 27.08V26.52C58.5466 25.7733 58.6666 25.0933 58.9066 24.48C59.1466 23.8533 59.4866 23.32 59.9266 22.88C60.3666 22.4267 60.8866 22.0733 61.4866 21.82C62.0999 21.5667 62.7732 21.44 63.5066 21.44H63.7066C64.4399 21.44 65.1066 21.5667 65.7066 21.82C66.3199 22.0733 66.8466 22.4267 67.2866 22.88C67.7266 23.32 68.0666 23.8533 68.3066 24.48C68.5466 25.0933 68.6666 25.7733 68.6666 26.52V27.08C68.6666 27.8133 68.5466 28.4933 68.3066 29.12C68.0666 29.7467 67.7266 30.2867 67.2866 30.74C66.8466 31.18 66.3199 31.5267 65.7066 31.78C65.1066 32.0333 64.4399 32.16 63.7066 32.16H63.5066ZM63.5266 30.42H63.6866C64.1266 30.42 64.5266 30.34 64.8866 30.18C65.2466 30.02 65.5532 29.7933 65.8066 29.5C66.0599 29.1933 66.2532 28.8333 66.3866 28.42C66.5199 27.9933 66.5866 27.5333 66.5866 27.04V26.54C66.5866 26.0333 66.5132 25.5733 66.3666 25.16C66.2332 24.7467 66.0399 24.3933 65.7866 24.1C65.5332 23.8067 65.2266 23.58 64.8666 23.42C64.5066 23.26 64.1132 23.18 63.6866 23.18H63.5266C63.0866 23.18 62.6866 23.26 62.3266 23.42C61.9799 23.58 61.6799 23.8067 61.4266 24.1C61.1732 24.3933 60.9732 24.7467 60.8266 25.16C60.6799 25.5733 60.6066 26.0333 60.6066 26.54V27.04C60.6066 27.5333 60.6732 27.9933 60.8066 28.42C60.9532 28.8333 61.1532 29.1933 61.4066 29.5C61.6599 29.7933 61.9666 30.02 62.3266 30.18C62.6866 30.34 63.0866 30.42 63.5266 30.42ZM70.3244 25.34V25.08C70.3244 24.5467 70.4244 24.06 70.6244 23.62C70.8377 23.18 71.131 22.8 71.5044 22.48C71.8777 22.1467 72.3244 21.8933 72.8444 21.72C73.3644 21.5333 73.9377 21.44 74.5644 21.44H74.9444C75.571 21.44 76.1444 21.5333 76.6644 21.72C77.1844 21.8933 77.631 22.1467 78.0044 22.48C78.3777 22.8 78.671 23.18 78.8844 23.62C79.0977 24.06 79.2044 24.5467 79.2044 25.08V25.36C79.2044 25.88 79.0977 26.3667 78.8844 26.82C78.671 27.26 78.3777 27.6467 78.0044 27.98C77.631 28.3 77.1844 28.5467 76.6644 28.72C76.1444 28.8933 75.571 28.98 74.9444 28.98H74.7044C74.5577 28.98 74.411 28.98 74.2644 28.98C74.131 28.9667 74.0044 28.9467 73.8844 28.92V30.08C74.0444 30.0667 74.2044 30.06 74.3644 30.06C74.5244 30.06 74.6977 30.06 74.8844 30.06H75.1644C75.8444 30.06 76.4577 30.1267 77.0044 30.26C77.551 30.3933 78.0177 30.5933 78.4044 30.86C78.8044 31.1133 79.111 31.4267 79.3244 31.8C79.5377 32.16 79.6444 32.5667 79.6444 33.02V33.18C79.6444 33.6333 79.531 34.04 79.3044 34.4C79.091 34.7733 78.791 35.0867 78.4044 35.34C78.0177 35.5933 77.5444 35.7867 76.9844 35.92C76.4377 36.0667 75.831 36.14 75.1644 36.14H74.6644C73.9977 36.14 73.3844 36.0733 72.8244 35.94C72.2777 35.8067 71.8044 35.6067 71.4044 35.34C71.0177 35.0867 70.7177 34.78 70.5044 34.42C70.291 34.06 70.1844 33.6467 70.1844 33.18V32.98C70.1844 32.3933 70.3577 31.88 70.7044 31.44C71.051 31 71.5444 30.66 72.1844 30.42V28.42C71.5977 28.1133 71.1377 27.6933 70.8044 27.16C70.4844 26.6267 70.3244 26.02 70.3244 25.34ZM72.3044 25.1V25.4C72.3044 25.6933 72.3644 25.9667 72.4844 26.22C72.6044 26.46 72.7644 26.6667 72.9644 26.84C73.1777 27.0133 73.4244 27.1533 73.7044 27.26C73.9844 27.3533 74.291 27.4 74.6244 27.4H74.8844C75.231 27.4 75.5444 27.3533 75.8244 27.26C76.1044 27.1533 76.3444 27.0133 76.5444 26.84C76.7577 26.6667 76.9177 26.46 77.0244 26.22C77.1444 25.9667 77.2044 25.6933 77.2044 25.4V25.1C77.2044 24.8067 77.1444 24.54 77.0244 24.3C76.9177 24.0467 76.7577 23.8333 76.5444 23.66C76.3444 23.4733 76.0977 23.3333 75.8044 23.24C75.5244 23.1467 75.2177 23.1 74.8844 23.1H74.6244C74.291 23.1 73.9844 23.1467 73.7044 23.24C73.4244 23.3333 73.1777 23.4733 72.9644 23.66C72.7644 23.8333 72.6044 24.04 72.4844 24.28C72.3644 24.52 72.3044 24.7933 72.3044 25.1ZM72.2044 32.98V33.1C72.2044 33.54 72.4177 33.8867 72.8444 34.14C73.2844 34.4067 73.9177 34.54 74.7444 34.54H75.1044C75.931 34.54 76.5644 34.4067 77.0044 34.14C77.4444 33.8733 77.6644 33.5333 77.6644 33.12V32.98C77.6644 32.54 77.4444 32.1933 77.0044 31.94C76.5644 31.6733 75.931 31.54 75.1044 31.54H74.7444C73.9177 31.54 73.2844 31.6733 72.8444 31.94C72.4177 32.1933 72.2044 32.54 72.2044 32.98ZM79.6644 20.44L78.2844 23.12L76.9644 22.16C77.071 21.84 77.191 21.5333 77.3244 21.24C77.471 20.9467 77.6377 20.68 77.8244 20.44H79.6644ZM87.2553 32V21.6H89.2353V32H87.2553ZM88.2353 20.06C87.8753 20.06 87.582 19.9533 87.3553 19.74C87.1286 19.5133 87.0153 19.2333 87.0153 18.9C87.0153 18.5667 87.1286 18.2867 87.3553 18.06C87.5953 17.8333 87.8886 17.72 88.2353 17.72C88.5953 17.72 88.8953 17.8333 89.1353 18.06C89.3753 18.2867 89.4953 18.5667 89.4953 18.9C89.4953 19.2333 89.3753 19.5133 89.1353 19.74C88.8953 19.9533 88.5953 20.06 88.2353 20.06ZM92.3334 32V21.6H93.8934C93.9601 21.8 94.0201 22.0333 94.0734 22.3C94.1268 22.5667 94.1668 22.8133 94.1934 23.04C94.6201 22.5333 95.1334 22.14 95.7334 21.86C96.3468 21.5667 97.0134 21.42 97.7334 21.42H97.8534C99.0268 21.42 99.9134 21.76 100.513 22.44C101.113 23.1067 101.413 24.0733 101.413 25.34V32H99.4334V25.72C99.4334 24.92 99.2668 24.3067 98.9334 23.88C98.6001 23.4533 98.0601 23.24 97.3134 23.24H97.1734C96.7468 23.24 96.3534 23.3133 95.9934 23.46C95.6468 23.5933 95.3468 23.7933 95.0934 24.06C94.8534 24.3133 94.6601 24.62 94.5134 24.98C94.3801 25.34 94.3134 25.7533 94.3134 26.22V32H92.3334Z" fill="black"/>
</svg>
