<svg width="100" height="50" viewBox="0 0 100 50" fill="none" xmlns="http://www.w3.org/2000/svg">
<rect width="100" height="50" rx="20" fill="white" fill-opacity="0.4"/>
<path d="M29.8493 32V18H34.2893C34.9826 18 35.6093 18.08 36.1693 18.24C36.7426 18.4 37.2293 18.6333 37.6293 18.94C38.0293 19.2333 38.3426 19.5933 38.5693 20.02C38.796 20.4467 38.9093 20.9267 38.9093 21.46V21.68C38.9093 22.28 38.776 22.82 38.5093 23.3C38.256 23.78 37.8626 24.1933 37.3293 24.54C38.076 24.8733 38.6493 25.3267 39.0493 25.9C39.4493 26.4733 39.6493 27.1467 39.6493 27.92V28.14C39.6493 28.7267 39.536 29.26 39.3093 29.74C39.096 30.22 38.7826 30.6267 38.3693 30.96C37.956 31.2933 37.456 31.5533 36.8693 31.74C36.2826 31.9133 35.6293 32 34.9093 32H29.8493ZM31.9293 30.1H34.8293C35.2426 30.1 35.616 30.0533 35.9493 29.96C36.2826 29.8667 36.5626 29.7333 36.7893 29.56C37.0293 29.3733 37.2093 29.1533 37.3293 28.9C37.4626 28.6467 37.5293 28.3533 37.5293 28.02V27.82C37.5293 27.5 37.4626 27.2067 37.3293 26.94C37.2093 26.6733 37.0293 26.4533 36.7893 26.28C36.5493 26.0933 36.2626 25.9533 35.9293 25.86C35.596 25.7667 35.2226 25.72 34.8093 25.72H31.9293V30.1ZM31.9293 23.98H34.3493C35.1226 23.98 35.7226 23.8067 36.1493 23.46C36.576 23.1 36.7893 22.6067 36.7893 21.98V21.8C36.7893 21.2 36.576 20.7333 36.1493 20.4C35.736 20.0533 35.1426 19.88 34.3693 19.88H31.9293V23.98ZM44.946 32.18C44.4393 32.18 43.9727 32.1067 43.546 31.96C43.1327 31.8133 42.7727 31.6067 42.466 31.34C42.1727 31.0733 41.9393 30.7533 41.766 30.38C41.606 29.9933 41.526 29.5667 41.526 29.1V28.94C41.526 27.8067 42.006 26.9667 42.966 26.42C43.9393 25.86 45.426 25.58 47.426 25.58H48.326V25C48.326 24.44 48.1393 24 47.766 23.68C47.406 23.3467 46.8793 23.18 46.186 23.18H46.066C45.5327 23.18 44.986 23.2733 44.426 23.46C43.8793 23.6467 43.3727 23.9133 42.906 24.26L42.026 22.76C42.666 22.3467 43.3327 22.02 44.026 21.78C44.7327 21.5267 45.4593 21.4 46.206 21.4H46.346C47.5727 21.4 48.526 21.72 49.206 22.36C49.8993 22.9867 50.246 23.8533 50.246 24.96V30.08C50.246 30.4 50.2793 30.7333 50.346 31.08C50.426 31.4133 50.5127 31.72 50.606 32H48.666C48.5993 31.8533 48.5393 31.6667 48.486 31.44C48.446 31.2133 48.4127 30.9867 48.386 30.76C47.906 31.2133 47.3727 31.5667 46.786 31.82C46.2127 32.06 45.5993 32.18 44.946 32.18ZM45.266 30.44C45.8793 30.44 46.446 30.3133 46.966 30.06C47.4993 29.7933 47.9527 29.44 48.326 29V27.08H47.686C46.206 27.08 45.1327 27.22 44.466 27.5C43.7993 27.78 43.466 28.2333 43.466 28.86V28.96C43.466 29.1867 43.506 29.3933 43.586 29.58C43.6793 29.7533 43.7993 29.9067 43.946 30.04C44.106 30.16 44.2993 30.26 44.526 30.34C44.7527 30.4067 44.9993 30.44 45.266 30.44ZM57.5202 32.14C56.7869 32.14 56.1136 32.02 55.5002 31.78C54.8869 31.5267 54.3602 31.1733 53.9202 30.72C53.4936 30.2667 53.1602 29.7333 52.9202 29.12C52.6802 28.4933 52.5602 27.8067 52.5602 27.06V26.52C52.5602 25.7867 52.6802 25.1067 52.9202 24.48C53.1736 23.8533 53.5136 23.32 53.9402 22.88C54.3802 22.4267 54.9002 22.08 55.5002 21.84C56.1002 21.5867 56.7602 21.46 57.4802 21.46H57.6402C58.5336 21.46 59.3469 21.68 60.0802 22.12C60.8269 22.5467 61.4336 23.16 61.9002 23.96L60.4002 24.9C60.0936 24.3267 59.7069 23.9 59.2402 23.62C58.7869 23.3267 58.2602 23.18 57.6602 23.18H57.4802C57.0402 23.18 56.6402 23.26 56.2802 23.42C55.9336 23.58 55.6336 23.8067 55.3802 24.1C55.1402 24.3933 54.9536 24.7467 54.8202 25.16C54.6869 25.5733 54.6202 26.04 54.6202 26.56V27.04C54.6202 27.5467 54.6869 28.0067 54.8202 28.42C54.9669 28.8333 55.1669 29.1867 55.4202 29.48C55.6869 29.7733 56.0002 30 56.3602 30.16C56.7336 30.32 57.1402 30.4 57.5802 30.4H57.7802C58.3269 30.4 58.8202 30.26 59.2602 29.98C59.7136 29.6867 60.0936 29.2667 60.4002 28.72L61.9202 29.68C61.4402 30.48 60.8402 31.0933 60.1202 31.52C59.4002 31.9333 58.5936 32.14 57.7002 32.14H57.5202ZM64.0034 32V17.6H65.9834V26.06H66.0834L70.3034 21.6H72.6434L67.9634 26.44L72.8434 32H70.3434L66.1034 26.96H65.9834V32H64.0034Z" fill="black"/>
</svg>
