<svg width="50" height="50" viewBox="0 0 50 50" fill="none" xmlns="http://www.w3.org/2000/svg">
<rect width="50" height="50" rx="10" fill="white" fill-opacity="0.4"/>
<path d="M9.45825 25.5C9.45825 13.8333 13.8333 9.45831 25.4999 9.45831C37.1666 9.45831 41.5416 13.8333 41.5416 25.5C41.5416 37.1666 37.1666 41.5416 25.4999 41.5416C13.8333 41.5416 9.45825 37.1666 9.45825 25.5Z" fill="#00ABE8"/>
<path fill-rule="evenodd" clip-rule="evenodd" d="M31.7915 18.2083L16.1144 24.8291C16.0007 24.8746 15.9033 24.9531 15.8346 25.0544C15.7659 25.1558 15.7292 25.2755 15.7292 25.3979C15.7292 25.5203 15.7659 25.64 15.8346 25.7413C15.9033 25.8427 16.0007 25.9212 16.1144 25.9666L19.0311 26.8854C19.4926 27.0279 19.9804 27.0639 20.4578 26.9906C20.9352 26.9174 21.3898 26.7368 21.7873 26.4625L28.3936 21.8979C28.4408 21.8735 28.4949 21.866 28.5469 21.8765C28.599 21.8871 28.6459 21.9151 28.6799 21.9559C28.7139 21.9967 28.7329 22.0478 28.7339 22.1009C28.7349 22.154 28.7177 22.2059 28.6852 22.2479L23.6248 27.0896C23.4961 27.2159 23.3969 27.3691 23.3342 27.5382C23.2715 27.7074 23.247 27.8882 23.2623 28.0679C23.2776 28.2477 23.3324 28.4218 23.4228 28.5778C23.5132 28.7339 23.637 28.8681 23.7852 28.9708L29.2248 32.6458C29.3948 32.7578 29.5901 32.8256 29.7929 32.8432C29.9957 32.8607 30.1997 32.8275 30.3864 32.7464C30.5731 32.6654 30.7367 32.5391 30.8624 32.3789C30.988 32.2187 31.0718 32.0298 31.1061 31.8291L33.2498 19.375C33.2829 19.1869 33.2647 18.9934 33.1972 18.8147C33.1297 18.6361 33.0155 18.4789 32.8663 18.3596C32.7172 18.2403 32.5387 18.1633 32.3496 18.1367C32.1605 18.1101 31.9678 18.1348 31.7915 18.2083Z" fill="white"/>
</svg>
