<svg width="332" height="384" viewBox="0 0 332 384" fill="none" xmlns="http://www.w3.org/2000/svg">
    <path
        d="M129.9 370.9C121 363.9 111.8 357.2 102.4 351C81.4 337 62.9 320.4 47.9 300.2C15.5 256.4 0.500011 206.8 0.200011 152.7C-0.0999892 110.9 0.100011 69.1 0.200011 27.3C0.200011 24.6 0.400014 21.8 1.00001 19.1C3.30001 7.20001 15 -4.69999 31.3 4.20001C58 18.9 86.8 28 116.9 33.2C145.8 38.1 174.7 38.7 203.7 34.9C238.5 30.3 271.4 19.7 302.5 3.20001C311.1 -1.39999 319.7 0.700012 325.6 8.60001C329.7 14 331.1 20.2 331.1 26.9C331.1 69 331.1 111 331.1 153.1C331.1 179.1 327.2 205.1 319.2 229.9C305.2 273.4 281.7 310.7 245.5 338.9C229.3 351.5 212.4 363.4 195.4 375M166.1 304.5C201.5 304.5 231.2 275.7 231.7 240.7C231.8 233.4 227.6 230.9 221 234.3C184.3 253 147.6 253 110.9 234.1C104.8 231 100.4 233.5 100.5 240.3C100.6 275.3 130.5 304.5 166.1 304.5Z"
        fill="#E81D62" />
    <path
        d="M176.1 382.7C176.7 382.7 177.3 382.5 177.9 382.3C183.9 380 190.3 378.3 195.5 374.8C212.5 363.2 229.4 351.4 245.6 338.7C281.8 310.5 305.3 273.3 319.3 229.7C327.3 204.9 331.1 179 331.2 152.9C331.3 110.8 331.2 68.8 331.2 26.7C331.2 20 329.7 13.8 325.7 8.40001C319.8 0.500015 311.2 -1.59999 302.6 3.00001C271.6 19.4 238.6 30.1 203.8 34.7C174.8 38.5 145.8 38 117 33C86.9 27.8 58.1 18.7 31.4 4.00001C15.1 -4.99999 3.4 7.00002 1.1 18.9C0.600005 21.6 0.300009 24.3 0.300009 27.1C0.300009 68.9 0.100009 110.7 0.300009 152.5C0.60001 206.7 15.6 256.2 48 300C63.1 320.4 81.8 337.2 103.1 351.2C112.3 357.3 121.2 363.8 129.9 370.6C138.3 377.2 147.4 381.7 157.9 383.2L176.1 382.7Z"
        fill="#E81D62" />
    <path
        d="M166.1 304.5C130.5 304.5 100.7 275.2 100.5 240.2C100.5 233.4 104.8 230.9 110.9 234C147.5 252.9 184.2 252.9 221 234.2C227.6 230.8 231.8 233.3 231.7 240.6C231.1 275.7 201.5 304.6 166.1 304.5Z"
        fill="white" />
    <path
        d="M143.9 86.8C146.8 93.9 148.4 100.5 147.8 107.6C147.2 114 145.1 119.9 142.5 125.7C137.4 137.1 131.4 148.2 126.2 159.6C125.3 161.5 114 184.9 110.2 192.9C109.3 194.9 107.3 196.2 105.1 196.1C104.8 196.1 103.7 195.9 103.5 195.9C99.6 194 96.3 188.4 94 181.6C90.1 170.2 83.3 159.9 74.1 152.2C71.8 150.2 69.7 148 66.6 146.1C60.7 142.4 56.3 137.3 53.1 131.1C51.2 127.4 49.5 123.7 48.7 119.6C46.9 109.3 51.7 98.7 60.7 93.4C71.2 87.2 81.5 88.5 91.5 94.9C92.7 95.7 92.7 95.7 93 94.2C94.5 86.6 97.9 80.1 104.3 75.5C115.8 67.2 132.2 68.8 141 81.5C142.3 83.3 143.4 85.3 143.9 86.8Z"
        fill="white" />
    <path
        d="M283.8 104C283.8 111.7 282.6 118.4 279.3 124.7C276.3 130.4 272 135 267.4 139.3C263.2 143.2 260.1 145.9 257 148.6C251 153.7 245.9 159.7 241.8 166.4C241.3 167.2 241.5 166.7 241 168C239.8 171.2 235.9 177.7 234.4 179.1C234.4 179.1 234.3 179.2 234.2 179.3C232.2 180.7 229.5 180.2 228 178.4C221.7 170.9 224.7 176.7 208.9 154.4C205.7 149.9 202.5 145.5 198.9 141.4C195.5 137.5 192.6 132.9 189.7 128.7C185.7 123 183.6 116.6 183 109.6C182.7 105.5 182.5 101.4 183.4 97.3C185.7 87.1 194.3 79.2 204.7 77.8C216.8 76.2 225.8 81.3 232.5 91.1C233.3 92.3 233.3 92.3 234.1 91.1C238.4 84.7 244.1 80.1 251.7 78.2C265.5 75 280 82.8 283.3 97.9C283.7 100.2 283.9 102.4 283.8 104Z"
        fill="white" />
</svg>
